HIERARCHY
ROOT root
{
	OFFSET	0	13.1	24.9
	CHANNELS 6  Xposition Yposition Zposition Xrotation Yrotation Zrotation
	JOINT spine_1
	{
		OFFSET	0	9.99999	0
		CHANNELS 3  Xrotation Yrotation Zrotation
		JOINT spine_2
		{
			OFFSET	0	112	-10
			CHANNELS 3  Xrotation Yrotation Zrotation
			JOINT spine_3
			{
				OFFSET	0	206.5	19.3
				CHANNELS 3  Xrotation Yrotation Zrotation
				JOINT spine_4
				{
					OFFSET	0	110.4	14.6
					CHANNELS 3  Xrotation Yrotation Zrotation
					JOINT neck_1
					{
						OFFSET	0	71.8	-50.3
						CHANNELS 3  Xrotation Yrotation Zrotation
						JOINT neck_2
						{
							OFFSET	0	86.2	-25.8
							CHANNELS 3  Xrotation Yrotation Zrotation
							JOINT head_ee
							{
								OFFSET	0	179.8	-8.7
								CHANNELS 3  Xrotation Yrotation Zrotation
								End Site
								{
									OFFSET	1	0	0
								}
							}
						}
					}
					JOINT left_clavicle
					{
						OFFSET	-43.2	22.4	-70.8
						CHANNELS 3  Xrotation Yrotation Zrotation
						JOINT left_shoulder
						{
							OFFSET	-93.9	-5.79999	48.7
							CHANNELS 3  Xrotation Yrotation Zrotation
							JOINT left_elbow
							{
								OFFSET	-291.4	-30.8	15.2
								CHANNELS 3  Xrotation Yrotation Zrotation
								JOINT left_lowarm_twist
								{
									OFFSET	-110.7	-3.89999	13.6
									CHANNELS 3  Xrotation Yrotation Zrotation
									JOINT left_hand
									{
										OFFSET	-110.7	-3.89999	13.6
										CHANNELS 3  Xrotation Yrotation Zrotation
										JOINT left_ee
										{
											OFFSET	-80.8	-5.10001	12.1
											CHANNELS 3  Xrotation Yrotation Zrotation
											End Site
											{
												OFFSET	1	0	0
											}
										}
									}
								}
							}
						}
					}
					JOINT right_clavicle
					{
						OFFSET	43.2	22.4	-70.8
						CHANNELS 3  Xrotation Yrotation Zrotation
						JOINT right_shoulder
						{
							OFFSET	93.9	-5.79999	48.7
							CHANNELS 3  Xrotation Yrotation Zrotation
							JOINT right_elbow
							{
								OFFSET	291.4	-30.8	15.2
								CHANNELS 3  Xrotation Yrotation Zrotation
								JOINT right_lowarm_twist
								{
									OFFSET	110.7	-3.89999	13.6
									CHANNELS 3  Xrotation Yrotation Zrotation
									JOINT right_hand
									{
										OFFSET	110.7	-3.89999	13.6
										CHANNELS 3  Xrotation Yrotation Zrotation
										JOINT right_ee
										{
											OFFSET	80.8	-5.10001	12.1
											CHANNELS 3  Xrotation Yrotation Zrotation
											End Site
											{
												OFFSET	1	0	0
											}
										}
									}
								}
							}
						}
					}
				}
			}
		}
	}
	JOINT left_hip
	{
		OFFSET	-82.8	-127.5	0.300001
		CHANNELS 3  Xrotation Yrotation Zrotation
		JOINT left_knee
		{
			OFFSET	-28.2	-396.7	2.2
			CHANNELS 3  Xrotation Yrotation Zrotation
			JOINT left_ankle
			{
				OFFSET	-11.7	-411.3	35.4
				CHANNELS 3  Xrotation Yrotation Zrotation
				JOINT left_toes
				{
					OFFSET	0	-60	-88.6
					CHANNELS 3  Xrotation Yrotation Zrotation
					JOINT left_foot_ee
					{
						OFFSET	-22.5	-16.5	-42.2
						CHANNELS 3  Xrotation Yrotation Zrotation
						End Site
						{
							OFFSET	1	0	0
						}
					}
				}
			}
		}
	}
	JOINT right_hip
	{
		OFFSET	82.8	-127.5	0.300001
		CHANNELS 3  Xrotation Yrotation Zrotation
		JOINT right_knee
		{
			OFFSET	28.2	-396.7	2.2
			CHANNELS 3  Xrotation Yrotation Zrotation
			JOINT right_ankle
			{
				OFFSET	11.7	-411.3	35.4
				CHANNELS 3  Xrotation Yrotation Zrotation
				JOINT right_toes
				{
					OFFSET	0	-60	-88.6
					CHANNELS 3  Xrotation Yrotation Zrotation
					JOINT right_foot_ee
					{
						OFFSET	22.5	-16.5	-42.2
						CHANNELS 3  Xrotation Yrotation Zrotation
						End Site
						{
							OFFSET	1	0	0
						}
					}
				}
			}
		}
	}
}
MOTION
Frames: 6
Frame Time: 0.02
1372.05 701.618 -1475.22 79.8466296632 74.8347182272 -73.4763086931 -7.88469 -0.495403 -3.74896 -7.87691 -0.256017 -3.77284 -7.84051 1.04933 -3.6332 -7.85862 0.462796 -3.75312 -5.1798 9.61448 10.2434 -4.8997 10.0037 12.0609 -0.0 0.0 -0.0 10.167 13.9176 18.6767 29.6963 -33.1598 81.4883 38.5286 -86.7628 36.5554 16.0342 0.283687 -2.02192 1.42878 19.5421 16.6656 -0.0 0.0 -0.0 10.9518 -7.37806 -20.9778 -7.82967 -3.43786 -51.6049 0.205048 5.80007 -0.0103874 16.1197 -0.283673 2.03283 6.31334 -33.0081 -54.4394 0.0 0.0 0.0 -23.5605 21.532 -13.2722 -43.9349 -0.735887 6.54014 42.0877 14.1429 -5.10221 40.269 -0.0 -0.0 -0.0 0.0 -0.0 35.0343 7.53587 -4.02652 -41.6849 0.577424 -6.23252 21.4214 -2.51494 2.91422 21.1124 -0.0 -0.0 0.0 0.0 0.0 
1331.34899732 690.659 -1479.55269454 93.5064719617 75.5166338485 -88.5595949108 -8.07808 -0.767137 -3.96161 -8.06949 -0.513703 -4.0023 -8.00973 0.896908 -3.9343 -8.03122 0.264832 -4.02639 -5.00488 9.27398 10.0929 -4.73293 9.44678 11.8465 -0.0 0.0 -0.0 10.576 10.5691 19.8697 26.3216 -34.4935 78.961 63.4411 -87.7444 61.441 10.7746 0.253238 -1.35104 1.38569 19.2331 16.2974 -0.0 0.0 -0.0 10.3519 -6.49958 -19.894 -3.3963 -0.705479 -51.1828 0.278896 7.8662 -0.0191751 16.3015 -0.283589 2.05605 6.20543 -32.7375 -53.3949 0.0 0.0 0.0 -26.6744 20.9853 -12.9 -41.4331 -0.560447 6.19771 42.4547 16.9123 -5.18069 40.2052 -0.0 -0.0 -0.0 0.0 -0.0 37.8677 8.22165 -0.703528 -51.868 1.38872 -7.57108 24.5387 -8.31588 3.27837 23.8345 -0.0 -0.0 0.0 0.0 0.0 
1331.36653309 690.659 -1479.71437217 92.6260394693 75.5288111834 -87.6502903022 -8.07808 -0.767137 -3.96161 -8.06949 -0.513703 -4.0023 -8.00973 0.896908 -3.9343 -8.03122 0.264832 -4.02639 -5.00488 9.27398 10.0929 -4.73293 9.44678 11.8465 -0.0 0.0 -0.0 10.576 10.5691 19.8697 26.3216 -34.4935 78.961 63.4411 -87.7444 61.441 10.7746 0.253238 -1.35104 1.38569 19.2331 16.2974 -0.0 0.0 -0.0 10.3519 -6.49958 -19.894 -3.3963 -0.705479 -51.1828 0.278896 7.8662 -0.0191751 16.3015 -0.283589 2.05605 6.20543 -32.7375 -53.3949 0.0 0.0 0.0 -26.6744 20.9853 -12.9 -41.4331 -0.560447 6.19771 42.4547 16.9123 -5.18069 40.2052 -0.0 -0.0 -0.0 0.0 -0.0 37.8677 8.22165 -0.703528 -51.868 1.38872 -7.57108 24.5387 -8.31588 3.27837 23.8345 -0.0 -0.0 0.0 0.0 0.0 
1295.33331894 686.961 -1489.48362466 102.732505122 76.6941076665 -98.5608353832 -8.0991 -0.750325 -4.3324 -8.08879 -0.473393 -4.37126 -8.02471 1.06344 -4.26647 -8.0499 0.376966 -4.38061 -5.28289 8.10812 8.71867 -5.08062 8.40042 10.2665 -0.0 0.0 -0.0 10.595 8.93999 20.1048 22.2138 -34.921 77.1525 85.3724 -87.9756 83.3574 6.53572 0.184001 -0.814126 1.15031 17.835 14.3617 -0.0 0.0 -0.0 10.2762 -5.95521 -19.7964 -1.32027 1.97794 -50.6305 0.383149 10.7472 -0.0360402 16.309 -0.283584 2.05701 6.19582 -32.3993 -53.362 0.0 0.0 0.0 -24.1266 23.1181 -15.1471 -42.2904 -0.618875 6.3159 42.5779 24.2084 -5.3817 40.1597 -0.0 -0.0 -0.0 0.0 -0.0 39.2684 7.29938 0.954795 -56.5313 1.83731 -8.13233 23.7419 -12.4056 3.19893 25.9214 -0.0 -0.0 0.0 0.0 0.0 
1166.62823026 699.762 -1502.17017468 135.880427858 75.7938825292 -132.341296096 -8.41728 -0.516562 -4.61502 -8.40547 -0.222172 -4.63848 -8.35721 1.41813 -4.4224 -8.38381 0.702677 -4.59043 0.284355 6.44001 5.68977 0.379892 6.77185 6.79186 -0.0 0.0 -0.0 10.0525 11.2641 18.8104 9.12108 -32.5136 73.7357 31.8806 -86.1836 29.9199 -1.93358 -0.0721286 0.236366 0.541252 12.4842 8.58396 -0.0 0.0 -0.0 10.9204 -2.75837 -21.3695 7.05571 8.81151 -47.9542 0.900593 24.0427 -0.191781 18.3894 -0.277343 2.32264 6.33289 -31.2374 -54.99 0.0 0.0 0.0 -23.4028 20.2435 -18.3414 -43.5137 -0.705302 6.48302 21.4538 29.1892 -3.1412 38.6646 -0.0 -0.0 -0.0 0.0 -0.0 38.0738 1.18562 -0.859989 -69.4951 3.30764 -9.48286 22.6755 -12.6132 3.07212 25.7543 -0.0 -0.0 0.0 0.0 0.0 
1166.62707578 699.762 -1502.16137345 135.887177632 75.792120148 -132.348258821 -8.41728 -0.516562 -4.61502 -8.40547 -0.222172 -4.63848 -8.35721 1.41813 -4.4224 -8.38381 0.702677 -4.59043 0.284355 6.44001 5.68977 0.379892 6.77185 6.79186 -0.0 0.0 -0.0 10.0525 11.2641 18.8104 9.12108 -32.5136 73.7357 31.8806 -86.1836 29.9199 -1.93358 -0.0721286 0.236366 0.541252 12.4842 8.58396 -0.0 0.0 -0.0 10.9204 -2.75837 -21.3695 7.05571 8.81151 -47.9542 0.900593 24.0427 -0.191781 18.3894 -0.277343 2.32264 6.33289 -31.2374 -54.99 0.0 0.0 0.0 -23.4028 20.2435 -18.3414 -43.5137 -0.705302 6.48302 21.4538 29.1892 -3.1412 38.6646 -0.0 -0.0 -0.0 0.0 -0.0 38.0738 1.18562 -0.859989 -69.4951 3.30764 -9.48286 22.6755 -12.6132 3.07212 25.7543 -0.0 -0.0 0.0 0.0 0.0 
